Coordinates
version=1
nRows=14
nColumns=28
inDegrees=yes

Units are S.I. units (second, meters, Newtons, ...)
Angles are in degrees.

endheader
time	pelvis_tilt	pelvis_list	pelvis_rotation	pelvis_tx	pelvis_ty	pelvis_tz	hip_flexion_r	hip_adduction_r	hip_rotation_r	knee_angle_r	ankle_angle_r	subtalar_angle_r	mtp_angle_r	hip_flexion_l	hip_adduction_l	hip_rotation_l	knee_angle_l	socket_flexion	socket_adduction	socket_rotation	socket_tx	socket_ty	socket_tz	foot_flex	lumbar_extension	lumbar_bending	lumbar_rotation
      0.31250000	      1.08329970	     -0.79239136	     -3.86604984	     -0.46078903	      1.02836832	      0.29526142	     14.58952503	      0.89160417	     -1.71567838	    -65.82005222	      9.55698786	    -13.50397861	     -3.92634816	      0.68983066	      0.12368621	     -6.71383720	     -4.93134148	     -1.31181697	      1.10829775	     17.08502001	      0.00000000	     -0.00815425	      0.00000000	     -0.76697249	    -11.04963525	     -2.94004494	      4.05649080
      0.31666667	      1.05099369	     -1.15886127	     -3.63300673	     -0.45504036	      1.02883764	      0.29487776	     15.03443030	      1.25501493	     -1.99214586	    -65.32440629	     10.33796863	    -13.14686909	     -3.79084489	      0.26104656	     -0.26014566	     -6.71111087	     -4.68943684	     -1.22902061	      1.15962432	     17.38762515	      0.00000000	     -0.00836290	      0.00000000	     -0.54789880	    -10.99235614	     -2.42944958	      3.90644834
      0.32083333	      1.09568874	     -1.16763408	     -3.55470847	     -0.44993460	      1.02939489	      0.29485184	     15.57393323	      1.28556693	     -2.01371973	    -64.98466858	     10.39531924	    -13.11759915	     -3.78399923	     -0.10023825	     -0.25475086	     -6.69498979	     -4.72216604	     -1.32563937	      1.15047250	     17.41232211	      0.00000000	     -0.00800668	      0.00000000	     -0.50977398	    -11.08569290	     -2.42497019	      3.88920354
      0.32500000	      1.22988197	     -1.61921030	     -3.25286992	     -0.44405862	      1.03012061	      0.29425599	     15.74174143	      1.68230719	     -2.36356721	    -64.29219463	     11.15757139	    -12.18940897	     -3.73876138	     -0.78127154	     -0.70193532	     -6.60805979	     -4.28669009	     -1.14522974	      1.22559492	     17.65437037	      0.00000000	     -0.00825741	      0.00000000	     -0.36176264	    -11.20135064	     -1.78940282	      3.44333000
      0.32916667	      1.27265224	     -1.61580071	     -3.17809903	     -0.43899360	      1.03054798	      0.29422540	     16.27035915	      1.68953802	     -2.39144338	    -63.90901695	     11.23031595	    -12.18308614	     -3.73363542	     -1.13714231	     -0.68604882	     -6.59298847	     -4.32138552	     -1.23367552	      1.22585854	     17.67708354	      0.00000000	     -0.00796506	      0.00000000	     -0.30756779	    -11.29706003	     -1.78706443	      3.43370622
      0.33333333	      1.63352692	     -1.98173042	     -2.81978069	     -0.43314348	      1.03158885	      0.29359073	     16.14508344	      1.94817956	     -2.80783897	    -63.09242687	     12.00374833	    -11.42382219	     -3.98883496	     -2.13916875	     -1.02597472	     -6.35918168	     -3.60364368	     -0.88394240	      1.36324237	     17.78246862	      0.00000000	     -0.00794146	      0.00000000	     -0.09581649	    -11.67017949	     -1.26000109	      2.95527106
      0.33750000	      1.66608370	     -1.97626519	     -2.76656021	     -0.42816105	      1.03192521	      0.29362615	     16.68587896	      1.94696886	     -2.84400985	    -62.66994060	     12.07711150	    -11.43126365	     -3.98524449	     -2.48031795	     -1.01244707	     -6.34720675	     -3.63247516	     -0.97567177	      1.34488091	     17.80338210	      0.00000000	     -0.00767286	      0.00000000	     -0.05311995	    -11.77180516	     -1.26156389	      2.95338721
      0.34166667	      1.73663889	     -2.35552641	     -2.46112794	     -0.42221755	      1.03248979	      0.29313165	     16.84823175	      2.28922003	     -3.16522835	    -61.77891934	     12.69611406	    -11.11001331	     -4.08042483	     -3.06837071	     -1.41089402	     -6.29780487	     -3.23410691	     -0.80508395	      1.42804232	     18.04981064	      0.00000000	     -0.00777370	      0.00000000	      0.11516942	    -11.76866825	     -0.74032857	      2.75082950
      0.34583333	      1.76619347	     -2.36733252	     -2.34346649	     -0.41693975	      1.03292100	      0.29308915	     17.25558504	      2.30426929	     -3.22642068	    -61.11829387	     12.86576662	    -11.10306998	     -4.09555385	     -3.43806575	     -1.41953259	     -6.28603676	     -3.21262651	     -0.85269852	      1.41677841	     18.09273859	      0.00000000	     -0.00737397	      0.00000000	      0.24150388	    -11.79421395	     -0.72414869	      2.72170365
      0.35000000	      1.95710286	     -2.74578448	     -2.06132150	     -0.41134256	      1.03347299	      0.29262134	     17.34361797	      2.61358636	     -3.59773343	    -60.25861957	     13.31846133	    -10.83139483	     -4.31678314	     -4.14236003	     -1.81649556	     -6.20423066	     -2.78597387	     -0.68062432	      1.50343079	     18.28466745	      0.00000000	     -0.00756618	      0.00000000	      0.34400481	    -11.99238720	     -0.19083586	      2.40173337
      0.35416667	      2.06679829	     -2.86641040	     -1.86292418	     -0.40594146	      1.03387066	      0.29235070	     17.58965756	      2.67892525	     -3.82194184	    -59.49402247	     13.64086175	    -10.85130624	     -4.47906607	     -4.66886417	     -1.94020861	     -6.14230595	     -2.55903980	     -0.59317101	      1.54254211	     18.39509441	      0.00000000	     -0.00743032	      0.00000000	      0.51084791	    -12.10845595	     -0.01320370	      2.30392408
      0.35833333	      2.08801914	     -2.86292514	     -1.77251548	     -0.40075874	      1.03417174	      0.29236434	     17.97406801	      2.68086266	     -3.85883466	    -58.73037663	     13.76385913	    -10.85260373	     -4.51321062	     -5.01929119	     -1.93363704	     -6.14108841	     -2.54779040	     -0.64264812	      1.52922238	     18.41168990	      0.00000000	     -0.00709306	      0.00000000	      0.59693934	    -12.12860231	     -0.01797786	      2.27055975
      0.36250000	      2.10576268	     -2.92125622	     -1.63057314	     -0.39541943	      1.03443683	      0.29229574	     18.29862543	      2.72056645	     -3.99130497	    -57.87964274	     13.97958786	    -10.88633001	     -4.55604959	     -5.39408351	     -2.00507021	     -6.13468259	     -2.47681935	     -0.65267075	      1.53193952	     18.52028585	      0.00000000	     -0.00683500	      0.00000000	      0.73626799	    -12.12318828	      0.06536819	      2.21368685
      0.36666667	      2.12845050	     -3.01086772	     -1.47005149	     -0.39006998	      1.03466915	      0.29215385	     18.59730776	      2.77808909	     -4.16493564	    -56.99002996	     14.20545735	    -10.94044824	     -4.61128698	     -5.77842308	     -2.10801759	     -6.14161701	     -2.38335097	     -0.64820191	      1.53882072	     18.64432730	      0.00000000	     -0.00664721	      0.00000000	      0.86589781	    -12.12940847	      0.20023873	      2.13667293
